<svg width="422" height="571" viewBox="0 0 422 571" fill="none" xmlns="http://www.w3.org/2000/svg">
<path d="M349.702 505.501L354 510.432L333.895 533.501L321.5 519.279L325.798 514.348L333.895 523.638L349.702 505.501Z" fill="#00FF38"/>
<g clip-path="url(#clip0_3_490)">
<path d="M66.5 528.636L75.6009 518.751L66.5 508.865L71.8992 503.001L81.0001 512.886L90.1008 503.001L95.5 508.865L86.3991 518.751L95.5 528.636L90.1008 534.501L80.9999 524.615L71.899 534.501L66.5 528.636Z" fill="#FF0000"/>
</g>
<g clip-path="url(#clip1_3_490)">
<path d="M179.822 266.907H173.325C172.737 266.907 172.26 266.511 172.26 266.023C172.26 265.534 172.737 265.138 173.325 265.138H179.822C180.41 265.138 180.887 265.534 180.887 266.023C180.887 266.512 180.41 266.907 179.822 266.907Z" fill="#36A1CB"/>
<path d="M176.165 266.023C176.165 265.534 176.642 265.138 177.23 265.138H173.325C172.737 265.138 172.26 265.534 172.26 266.023C172.26 266.511 172.737 266.907 173.325 266.907H177.23C176.642 266.907 176.165 266.512 176.165 266.023Z" fill="#2393B5"/>
<path d="M147.545 269.461C146.749 269.461 145.993 269.294 145.311 268.996V288.029C145.994 287.731 146.749 287.564 147.545 287.564C148.341 287.564 149.097 287.731 149.779 288.029V276.955V273.453V268.997C149.097 269.294 148.341 269.461 147.545 269.461Z" fill="#36A1CB"/>
<path d="M150.983 264.168C151.453 264.735 151.716 265.362 151.716 266.023C151.716 266.684 151.453 267.312 150.983 267.879H161.26V264.168H150.983Z" fill="#36A1CB"/>
<path d="M155.149 264.168H150.983C151.453 264.735 151.716 265.362 151.716 266.023C151.716 266.684 151.453 267.312 150.983 267.879H155.149C155.618 267.312 155.881 266.684 155.881 266.023C155.881 265.362 155.618 264.735 155.149 264.168Z" fill="#2393B5"/>
<path d="M144.533 288.688H136.474H130.586H125.191V292.399H144.533C144.128 291.832 143.901 291.205 143.901 290.544C143.901 289.883 144.128 289.255 144.533 288.688Z" fill="#36A1CB"/>
<path d="M130.586 288.688H125.191V292.399H130.785V288.688H130.586Z" fill="#2393B5"/>
<path d="M173.325 268.306C173.325 269.088 172.562 269.721 171.621 269.721H160.936C159.994 269.721 159.232 269.088 159.232 268.306V263.74C159.232 262.959 159.994 262.325 160.936 262.325H171.621C172.562 262.325 173.325 262.959 173.325 263.74V268.306Z" fill="#FFB92E"/>
<path d="M171.621 262.325H168.071V269.721H171.621C172.562 269.721 173.325 269.088 173.325 268.306V263.74C173.325 262.959 172.562 262.325 171.621 262.325Z" fill="#F28838"/>
<path d="M127.945 262.994V255.971H126.977H119.262H117.93H117.482V306.899H119.262H126.977H127.945V266.147" fill="#7C7A75"/>
<path d="M122.714 262.994V255.971H122.23H118.372H117.706H117.482V306.899H118.372H122.23H122.714V266.147" fill="#6D6C69"/>
<path d="M130.407 307.08V306.717C130.407 305.901 129.61 305.239 128.627 305.239H126.977H117.93H116.28C115.297 305.239 114.5 305.901 114.5 306.717V307.08C114.5 307.897 115.297 308.558 116.28 308.558H117.93H126.977H128.627C129.61 308.558 130.407 307.897 130.407 307.08Z" fill="#CCC3A8"/>
<path d="M130.407 256.152V255.789C130.407 254.973 129.61 254.311 128.627 254.311H126.977H117.93H116.28C115.297 254.311 114.5 254.973 114.5 255.789V256.152C114.5 256.968 115.297 257.63 116.28 257.63H117.93H126.977H128.627C129.61 257.63 130.407 256.968 130.407 256.152Z" fill="#CCC3A8"/>
<path d="M162.168 268.306V263.74C162.168 262.959 162.931 262.325 163.872 262.325H160.935C159.994 262.325 159.231 262.959 159.231 263.74V268.306C159.231 269.088 159.994 269.721 160.935 269.721H163.872C162.931 269.721 162.168 269.088 162.168 268.306Z" fill="#EF9A1D"/>
<path d="M117.437 307.08V306.717C117.437 305.901 118.234 305.239 119.217 305.239H117.93H116.28C115.297 305.239 114.5 305.901 114.5 306.717V307.08C114.5 307.897 115.297 308.558 116.28 308.558H117.93H119.217C118.234 308.558 117.437 307.897 117.437 307.08Z" fill="#C9B585"/>
<path d="M117.437 256.152V255.789C117.437 254.973 118.234 254.311 119.217 254.311H117.93H116.28C115.297 254.311 114.5 254.973 114.5 255.789V256.152C114.5 256.968 115.297 257.63 116.28 257.63H117.93H119.217C118.234 257.63 117.437 256.968 117.437 256.152Z" fill="#C9B585"/>
<path d="M147.545 261.475C144.52 261.475 142.068 263.511 142.068 266.023C142.068 268.535 144.52 270.571 147.545 270.571C150.569 270.571 153.022 268.535 153.022 266.023C153.022 263.511 150.57 261.475 147.545 261.475ZM147.545 267.701C146.429 267.701 145.525 266.95 145.525 266.023C145.525 265.097 146.429 264.345 147.545 264.345C148.661 264.345 149.565 265.096 149.565 266.023C149.565 266.95 148.661 267.701 147.545 267.701Z" fill="#FFB92E"/>
<path d="M147.545 285.995C144.52 285.995 142.068 288.032 142.068 290.544C142.068 293.056 144.52 295.092 147.545 295.092C150.569 295.092 153.022 293.055 153.022 290.544C153.022 288.032 150.57 285.995 147.545 285.995ZM147.545 292.222C146.429 292.222 145.525 291.47 145.525 290.544C145.525 289.617 146.429 288.866 147.545 288.866C148.661 288.866 149.565 289.617 149.565 290.544C149.565 291.47 148.661 292.222 147.545 292.222Z" fill="#FFB92E"/>
<path d="M145.005 266.023C145.005 263.934 146.702 262.174 149.013 261.641C148.546 261.533 148.054 261.475 147.545 261.475C144.52 261.475 142.068 263.511 142.068 266.023C142.068 268.535 144.52 270.571 147.545 270.571C148.054 270.571 148.546 270.513 149.013 270.405C146.702 269.872 145.005 268.113 145.005 266.023Z" fill="#FFAB31"/>
<path d="M145.005 290.544C145.005 288.454 146.702 286.695 149.013 286.162C148.546 286.054 148.054 285.995 147.545 285.995C144.52 285.995 142.068 288.031 142.068 290.544C142.068 293.056 144.52 295.092 147.545 295.092C148.054 295.092 148.546 295.033 149.013 294.925C146.702 294.392 145.005 292.633 145.005 290.544Z" fill="#FFAB31"/>
<path d="M147.545 293.106C145.844 293.106 144.46 291.957 144.46 290.544C144.46 289.131 145.844 287.982 147.545 287.982C149.246 287.982 150.63 289.131 150.63 290.544C150.63 291.957 149.246 293.106 147.545 293.106ZM147.545 289.75C147.018 289.75 146.59 290.106 146.59 290.544C146.59 290.981 147.018 291.337 147.545 291.337C148.072 291.337 148.5 290.981 148.5 290.544C148.5 290.106 148.072 289.75 147.545 289.75Z" fill="#F28838"/>
<path d="M147.545 268.586C145.844 268.586 144.46 267.436 144.46 266.023C144.46 264.61 145.844 263.461 147.545 263.461C149.246 263.461 150.63 264.61 150.63 266.023C150.63 267.436 149.246 268.586 147.545 268.586ZM147.545 265.23C147.018 265.23 146.59 265.586 146.59 266.023C146.59 266.461 147.018 266.817 147.545 266.817C148.072 266.817 148.5 266.461 148.5 266.023C148.5 265.586 148.072 265.23 147.545 265.23Z" fill="#F28838"/>
<path d="M153.683 306.302L158.089 297.442H174.655L179.889 307.67H162.274L161.714 306.302H153.683Z" fill="#CEA658"/>
<path d="M158.089 297.442L153.683 306.302H161.714M158.089 297.442H174.655L179.889 307.67H162.274L161.714 306.302M158.089 297.442L161.714 306.302" stroke="black" stroke-width="2"/>
</g>
<g clip-path="url(#clip2_3_490)">
<path d="M244.089 246.021H241.348C241.023 246.021 240.717 246.115 240.448 246.28V239.504C240.717 239.669 241.023 239.763 241.348 239.763H244.089C244.333 239.763 244.565 239.708 244.78 239.613V246.172C244.565 246.075 244.333 246.021 244.089 246.021Z" fill="#F28838"/>
<path d="M239.42 237.526V223.495C239.42 222.259 240.283 221.257 241.348 221.257H244.089C245.154 221.257 246.016 222.259 246.016 223.495V237.526C246.016 238.761 245.153 239.763 244.089 239.763H241.348C240.283 239.763 239.42 238.761 239.42 237.526Z" fill="#FFB92E"/>
<path d="M241.348 246.021H244.089C245.154 246.021 246.016 247.022 246.016 248.258V250.728C246.016 251.964 245.153 252.966 244.089 252.966H241.348C240.283 252.966 239.42 251.964 239.42 250.728V248.258C239.42 247.022 240.283 246.021 241.348 246.021Z" fill="#FFB92E"/>
<path d="M287.199 262.338L291.736 256.167C292.099 257.054 292.623 257.869 293.308 258.548C293.993 259.227 294.769 259.7 295.58 259.977L287.236 271.323L284.598 274.911L282.506 277.755C281.741 275.945 280.4 274.524 278.761 273.811L284.611 265.856" fill="#36A1CB"/>
<path d="M256.401 226.084V231.952H246.016V226.084H256.401Z" fill="#36A1CB"/>
<path d="M279.905 226.084C279.559 226.981 279.366 227.973 279.366 229.018C279.366 230.063 279.56 231.056 279.905 231.952H272.342V226.084H279.905Z" fill="#36A1CB"/>
<path d="M290.473 233.397L296.607 245.937C295.111 246.141 293.674 246.974 292.619 248.409C292.549 248.503 292.482 248.6 292.417 248.698L286.283 236.16C287.987 235.93 289.479 234.898 290.473 233.397Z" fill="#36A1CB"/>
<path d="M256.401 232.628C256.401 233.864 257.264 234.866 258.328 234.866H270.414C271.479 234.866 272.342 233.864 272.342 232.628V225.409C272.342 224.173 271.479 223.171 270.414 223.171H258.328C257.264 223.171 256.401 224.173 256.401 225.409V232.628Z" fill="#CCC3A8"/>
<path d="M258.328 223.171H262.344V234.866H258.328C257.264 234.866 256.401 233.864 256.401 232.628V225.409C256.401 224.173 257.264 223.171 258.328 223.171Z" fill="#7C7A75"/>
<path d="M292.619 248.409C294.84 245.388 298.751 245.03 301.353 247.609C303.955 250.188 304.264 254.727 302.042 257.748C299.821 260.769 295.91 261.127 293.308 258.548C290.706 255.969 290.397 251.43 292.619 248.409ZM295.847 255.096C296.807 256.048 298.249 255.915 299.068 254.801C299.888 253.687 299.774 252.012 298.814 251.061C297.854 250.109 296.412 250.241 295.593 251.356C294.773 252.47 294.886 254.145 295.847 255.096Z" fill="#FFB92E"/>
<path d="M285.561 221.826C288.982 221.826 291.755 225.046 291.755 229.018C291.755 232.99 288.982 236.21 285.561 236.21C282.139 236.21 279.365 232.99 279.365 229.018C279.365 225.046 282.139 221.826 285.561 221.826ZM285.561 231.672C286.823 231.672 287.846 230.484 287.846 229.018C287.846 227.553 286.823 226.365 285.561 226.365C284.298 226.365 283.275 227.553 283.275 229.018C283.275 230.483 284.298 231.672 285.561 231.672Z" fill="#FFB92E"/>
<path d="M257.679 302.353L260.249 297.105H269.187H269.419H270.954H272.603H272.836H279.892H280.124H281.773H283.308H283.54H292.478L295.048 302.353" fill="#7C7A75"/>
<path d="M276.363 273.308C280.141 273.308 283.203 276.863 283.203 281.249V297.105H269.524V281.249C269.524 276.863 272.586 273.308 276.363 273.308ZM276.363 284.109C277.626 284.109 278.649 282.921 278.649 281.456C278.649 279.991 277.626 278.803 276.363 278.803C275.101 278.803 274.078 279.991 274.078 281.456C274.078 282.921 275.101 284.109 276.363 284.109Z" fill="#FFB92E"/>
<path d="M259.574 307.602H290.68H302.78C303.892 307.602 304.794 306.556 304.794 305.265V304.691C304.794 303.4 303.892 302.354 302.78 302.354H290.68H259.958H249.946C248.834 302.354 247.933 303.4 247.933 304.691V305.265C247.933 306.556 248.834 307.602 249.946 307.602H254.979H255.505" fill="#CCC3A8"/>
<path d="M241.715 237.526V223.495C241.715 222.354 240.98 221.415 240.03 221.276C240.109 221.265 240.19 221.257 240.272 221.257H243.013C244.077 221.257 244.94 222.259 244.94 223.495V237.526C244.94 238.761 244.077 239.763 243.013 239.763H240.272C240.19 239.763 240.109 239.755 240.03 239.744C240.98 239.605 241.715 238.666 241.715 237.526Z" fill="#EF9A1D"/>
<path d="M241.715 250.728V248.258C241.715 247.118 240.98 246.179 240.03 246.04C240.109 246.029 240.19 246.021 240.272 246.021H243.013C244.077 246.021 244.94 247.022 244.94 248.258V250.728C244.94 251.964 244.077 252.966 243.013 252.966H240.272C240.19 252.966 240.109 252.958 240.03 252.946C240.98 252.808 241.715 251.868 241.715 250.728Z" fill="#EF9A1D"/>
<path d="M267.919 232.628V225.409C267.919 224.173 267.055 223.171 265.991 223.171H269.216C270.281 223.171 271.144 224.173 271.144 225.409V232.628C271.144 233.864 270.281 234.866 269.216 234.866H265.991C267.055 234.866 267.919 233.863 267.919 232.628Z" fill="#C9B585"/>
<path d="M297.627 257.748C299.848 254.727 299.54 250.187 296.938 247.609C296.215 246.892 295.391 246.403 294.53 246.134C296.435 245.541 298.55 246.01 300.163 247.609C302.765 250.187 303.074 254.727 300.852 257.748C299.248 259.929 296.763 260.721 294.526 260.022C295.694 259.659 296.783 258.897 297.627 257.748Z" fill="#EF9A1D"/>
<path d="M287.411 229.446C287.411 226.122 285.468 223.325 282.829 222.501C283.343 222.341 283.884 222.254 284.442 222.254C287.863 222.254 290.637 225.474 290.637 229.446C290.637 233.418 287.863 236.638 284.442 236.638C283.884 236.638 283.343 236.551 282.829 236.39C285.468 235.566 287.411 232.77 287.411 229.446Z" fill="#EF9A1D"/>
<path d="M290.118 303.118C290.296 302.8 290.323 302.399 290.189 302.053L288.05 296.493C287.894 296.09 287.55 295.831 287.17 295.831H290.395C290.775 295.831 291.12 296.09 291.275 296.493L293.414 302.053C293.548 302.399 293.521 302.8 293.343 303.118C293.166 303.436 292.861 303.628 292.534 303.628H289.309C289.636 303.628 289.941 303.436 290.118 303.118Z" fill="#6B6861"/>
<path d="M273.574 273.532C274.092 273.387 274.631 273.308 275.187 273.308C278.964 273.308 282.027 276.863 282.027 281.249V297.105H278.802V281.249C278.802 277.508 276.573 274.374 273.574 273.532Z" fill="#EF9A1D"/>
<path d="M300.461 305.265V304.691C300.461 303.4 299.56 302.354 298.448 302.354H301.673C302.785 302.354 303.686 303.4 303.686 304.691V305.265C303.686 306.556 302.785 307.602 301.673 307.602H298.448C299.56 307.602 300.461 306.556 300.461 305.265Z" fill="#C9B585"/>
<path d="M238.216 237.526V223.495C238.216 221.49 239.621 219.858 241.348 219.858H244.089C245.816 219.858 247.221 221.49 247.221 223.495V224.686H255.259C255.548 223.026 256.815 221.773 258.328 221.773H262.344H270.414C271.928 221.773 273.194 223.026 273.484 224.686H279.175C280.461 222.141 282.841 220.428 285.561 220.428C289.641 220.428 292.96 224.281 292.96 229.018C292.96 230.644 292.569 232.165 291.891 233.462L297.285 244.489C297.301 244.489 297.317 244.488 297.333 244.488C299.091 244.488 300.796 245.218 302.135 246.545C303.638 248.034 304.552 250.115 304.707 252.402C304.863 254.69 304.241 256.911 302.958 258.656C302.487 259.296 301.943 259.843 301.348 260.29C301.196 261.902 300.662 265.858 298.876 270.519C296.819 275.888 292.647 283.215 284.408 288.035V295.706H292.478C292.911 295.706 293.311 295.976 293.525 296.414L295.749 300.955H302.78C304.555 300.955 305.998 302.631 305.998 304.691V305.265C305.998 307.325 304.555 309.001 302.78 309.001H259.574C258.909 309.001 258.37 308.375 258.37 307.602C258.37 306.83 258.909 306.204 259.574 306.204H302.78C303.226 306.204 303.589 305.783 303.589 305.265V304.691C303.589 304.173 303.226 303.752 302.78 303.752H295.073C295.072 303.752 295.071 303.752 295.07 303.752H257.681C257.68 303.752 257.679 303.752 257.678 303.752C257.678 303.752 257.677 303.752 257.676 303.752H249.947C249.501 303.752 249.138 304.173 249.138 304.691V305.265C249.138 305.783 249.501 306.204 249.947 306.204H255.506C256.171 306.204 256.71 306.829 256.71 307.602C256.71 308.375 256.171 309.001 255.506 309.001H249.947C248.172 309.001 246.729 307.325 246.729 305.265V304.691C246.729 302.631 248.172 300.955 249.947 300.955H256.979L259.202 296.414C259.416 295.977 259.816 295.707 260.25 295.707H268.319V281.249C268.319 276.099 271.928 271.91 276.363 271.91C277.053 271.91 277.722 272.012 278.361 272.202L283.695 264.948C284.127 264.361 284.887 264.291 285.393 264.792C285.9 265.294 285.959 266.177 285.527 266.764L280.675 273.362C281.426 273.914 282.091 274.606 282.645 275.412L293.608 260.505C293.228 260.247 292.866 259.949 292.526 259.612C292.437 259.524 292.35 259.433 292.264 259.34C292.231 259.303 292.198 259.265 292.165 259.228C292.115 259.172 292.066 259.116 292.018 259.058C291.976 259.009 291.936 258.957 291.895 258.907C291.859 258.861 291.823 258.816 291.787 258.77C291.739 258.706 291.692 258.642 291.645 258.577C291.629 258.555 291.613 258.534 291.597 258.511L288.115 263.246C287.683 263.833 286.923 263.903 286.417 263.402C285.911 262.9 285.851 262.017 286.283 261.43L290.342 255.91C290.137 255.222 290.005 254.5 289.954 253.755C289.83 251.936 290.199 250.161 290.999 248.632L285.606 237.608C285.591 237.608 285.576 237.609 285.561 237.609C282.841 237.609 280.461 235.895 279.175 233.351H273.484C273.195 235.011 271.929 236.264 270.415 236.264H262.344H258.329C256.815 236.264 255.549 235.011 255.259 233.351H247.222V237.526C247.222 238.703 246.735 239.749 245.985 240.414V245.371C246.735 246.035 247.222 247.081 247.222 248.258V250.729C247.222 252.734 245.816 254.365 244.089 254.365H243.923V259.451C243.923 260.224 243.384 260.85 242.719 260.85C242.053 260.85 241.514 260.224 241.514 259.451V254.365H241.348C239.621 254.365 238.216 252.734 238.216 250.729V248.258C238.216 247.194 238.614 246.238 239.244 245.573V240.211C238.614 239.546 238.216 238.59 238.216 237.526ZM244.812 223.495C244.812 223.032 244.488 222.655 244.089 222.655H241.348C240.949 222.655 240.625 223.032 240.625 223.495V237.526C240.625 237.864 240.799 238.155 241.049 238.287C241.058 238.292 241.068 238.298 241.078 238.303C241.115 238.32 241.153 238.334 241.193 238.344C241.201 238.346 241.209 238.348 241.216 238.349C241.259 238.358 241.303 238.365 241.348 238.365H244.089C244.134 238.365 244.178 238.359 244.221 238.349C244.262 238.34 244.303 238.326 244.343 238.309C244.616 238.189 244.812 237.885 244.812 237.526V231.952V226.084L244.812 223.495ZM241.653 244.622H243.575V241.162H241.653V244.622ZM302.305 252.623C302.2 251.08 301.584 249.677 300.57 248.672C299.668 247.778 298.518 247.285 297.333 247.285C297.138 247.285 296.945 247.299 296.754 247.325C296.752 247.325 296.75 247.326 296.748 247.326C296.533 247.355 296.322 247.402 296.114 247.462C296.09 247.469 296.065 247.476 296.04 247.483C295.993 247.498 295.946 247.514 295.9 247.53C295.864 247.542 295.828 247.555 295.793 247.568C295.753 247.583 295.713 247.599 295.673 247.615C295.631 247.633 295.589 247.65 295.547 247.669C295.513 247.684 295.479 247.7 295.444 247.716C295.396 247.739 295.348 247.763 295.3 247.787C295.273 247.801 295.245 247.815 295.217 247.83C295.157 247.863 295.098 247.897 295.039 247.932C295.024 247.941 295.009 247.95 294.994 247.959C294.918 248.006 294.842 248.055 294.768 248.106C294.768 248.106 294.768 248.106 294.768 248.106C294.696 248.156 294.625 248.209 294.555 248.263C294.537 248.278 294.518 248.293 294.5 248.308C294.449 248.348 294.399 248.39 294.349 248.433C294.326 248.453 294.304 248.473 294.281 248.494C294.237 248.533 294.193 248.574 294.15 248.615C294.126 248.638 294.102 248.662 294.078 248.685C294.037 248.726 293.996 248.769 293.956 248.811C293.933 248.836 293.91 248.861 293.887 248.886C293.845 248.932 293.805 248.98 293.764 249.028C293.745 249.051 293.725 249.073 293.706 249.096C293.647 249.168 293.59 249.241 293.535 249.317C293.483 249.387 293.433 249.459 293.384 249.532C293.382 249.535 293.38 249.538 293.378 249.541C292.619 250.681 292.257 252.088 292.355 253.534C292.403 254.241 292.56 254.917 292.812 255.541C292.815 255.55 292.82 255.558 292.824 255.567C292.974 255.933 293.154 256.275 293.362 256.593C293.366 256.597 293.369 256.602 293.372 256.607C293.417 256.676 293.465 256.743 293.513 256.81C293.522 256.822 293.53 256.834 293.539 256.847C293.584 256.907 293.63 256.965 293.677 257.023C293.689 257.039 293.702 257.056 293.715 257.071C293.763 257.13 293.813 257.187 293.863 257.243C293.874 257.256 293.885 257.269 293.897 257.282C293.96 257.351 294.024 257.418 294.09 257.484C294.153 257.546 294.216 257.605 294.281 257.663C294.303 257.683 294.326 257.702 294.349 257.722C294.39 257.757 294.431 257.792 294.472 257.826C294.504 257.852 294.537 257.877 294.569 257.902C294.602 257.927 294.634 257.952 294.667 257.976C294.705 258.003 294.742 258.031 294.781 258.057C294.808 258.076 294.836 258.095 294.864 258.113C294.907 258.141 294.949 258.169 294.991 258.195C295.015 258.21 295.039 258.223 295.063 258.237C295.142 258.284 295.222 258.328 295.303 258.37C295.337 258.388 295.37 258.406 295.404 258.422C295.436 258.438 295.469 258.451 295.501 258.466C295.546 258.487 295.592 258.508 295.638 258.527C295.666 258.539 295.694 258.55 295.722 258.561C295.775 258.581 295.828 258.602 295.881 258.62C296.347 258.785 296.834 258.871 297.327 258.871C297.327 258.871 297.327 258.871 297.328 258.871C298.792 258.871 300.176 258.131 301.126 256.84C301.991 255.663 302.41 254.166 302.305 252.623ZM259.75 300.955H292.977L291.777 298.504H283.203H269.523H260.95L259.75 300.955ZM270.728 281.249V295.707H281.999V281.249C281.999 277.641 279.471 274.707 276.364 274.707C273.256 274.707 270.728 277.641 270.728 281.249ZM283.907 278.004C284.23 279.015 284.408 280.108 284.408 281.248V284.875C289.948 281.326 294.056 276.158 296.635 269.486C297.884 266.254 298.48 263.359 298.761 261.504C298.293 261.611 297.814 261.669 297.328 261.669C297.328 261.669 297.328 261.669 297.327 261.669C296.887 261.669 296.449 261.622 296.02 261.533L283.907 278.004ZM292.677 246.398C292.733 246.345 292.791 246.295 292.848 246.244C292.859 246.234 292.869 246.225 292.88 246.215C292.983 246.125 293.087 246.039 293.194 245.955C293.197 245.953 293.2 245.951 293.203 245.948C293.301 245.871 293.402 245.798 293.503 245.726C293.524 245.712 293.544 245.698 293.565 245.684C293.656 245.621 293.748 245.561 293.842 245.503C293.859 245.492 293.876 245.481 293.893 245.471C294.004 245.403 294.116 245.338 294.23 245.277C294.234 245.275 294.238 245.273 294.242 245.271C294.346 245.216 294.451 245.164 294.557 245.115C294.591 245.099 294.625 245.083 294.659 245.068C294.697 245.051 294.734 245.033 294.772 245.017L290.212 235.694C290.186 235.718 290.16 235.74 290.135 235.763C289.531 236.316 288.852 236.764 288.118 237.079L292.677 246.398ZM285.561 234.811C285.761 234.811 285.958 234.796 286.152 234.769C286.231 234.758 286.31 234.745 286.389 234.73C286.392 234.73 286.394 234.729 286.397 234.728C287.133 234.583 287.833 234.243 288.44 233.745C288.44 233.745 288.441 233.744 288.441 233.744C288.503 233.693 288.564 233.64 288.624 233.586C288.635 233.576 288.647 233.566 288.658 233.555C288.706 233.511 288.753 233.466 288.799 233.42C288.821 233.399 288.842 233.377 288.863 233.355C288.898 233.319 288.933 233.283 288.967 233.246C288.997 233.213 289.027 233.181 289.056 233.147C289.08 233.12 289.104 233.092 289.127 233.064C289.163 233.021 289.2 232.977 289.235 232.932C289.25 232.913 289.265 232.893 289.281 232.873C289.321 232.821 289.361 232.768 289.4 232.713C289.41 232.699 289.42 232.685 289.43 232.671C290.13 231.673 290.551 230.401 290.551 229.018C290.551 225.823 288.312 223.224 285.56 223.224C283.517 223.224 281.758 224.658 280.987 226.703C280.966 226.758 280.946 226.813 280.927 226.869C280.915 226.904 280.903 226.94 280.891 226.976C280.873 227.032 280.856 227.088 280.839 227.144C280.828 227.182 280.817 227.22 280.806 227.258C280.791 227.31 280.778 227.364 280.765 227.417C280.755 227.46 280.743 227.502 280.734 227.545C280.723 227.593 280.714 227.641 280.704 227.689C280.694 227.738 280.684 227.786 280.675 227.835C280.667 227.879 280.661 227.923 280.654 227.967C280.645 228.02 280.636 228.073 280.629 228.126C280.623 228.17 280.619 228.213 280.614 228.257C280.608 228.311 280.601 228.365 280.596 228.42C280.592 228.472 280.589 228.524 280.586 228.576C280.583 228.623 280.579 228.669 280.577 228.717C280.572 228.817 280.57 228.917 280.57 229.018C280.57 229.119 280.572 229.219 280.577 229.319C280.579 229.366 280.583 229.411 280.586 229.458C280.589 229.51 280.592 229.563 280.596 229.616C280.601 229.669 280.608 229.722 280.614 229.775C280.619 229.82 280.623 229.865 280.629 229.91C280.636 229.962 280.645 230.013 280.653 230.065C280.66 230.11 280.667 230.156 280.675 230.201C280.684 230.249 280.693 230.295 280.703 230.342C280.713 230.392 280.723 230.442 280.734 230.491C280.743 230.533 280.754 230.573 280.764 230.614C280.778 230.669 280.791 230.724 280.807 230.779C280.816 230.816 280.827 230.851 280.838 230.887C280.855 230.945 280.873 231.004 280.892 231.062C280.903 231.096 280.915 231.129 280.926 231.163C280.946 231.22 280.966 231.278 280.988 231.335C281.76 233.379 283.518 234.811 285.561 234.811ZM278.26 230.412C278.253 230.363 278.246 230.314 278.239 230.265C278.228 230.175 278.219 230.085 278.21 229.994C278.205 229.947 278.2 229.9 278.196 229.853C278.188 229.756 278.182 229.658 278.177 229.56C278.175 229.519 278.171 229.478 278.17 229.437C278.164 229.298 278.161 229.159 278.161 229.019C278.161 228.879 278.164 228.739 278.17 228.6C278.172 228.559 278.175 228.518 278.177 228.477C278.182 228.379 278.188 228.281 278.196 228.183C278.2 228.137 278.205 228.091 278.21 228.044C278.218 227.953 278.228 227.861 278.24 227.771C278.246 227.723 278.253 227.675 278.259 227.627C278.266 227.579 278.271 227.531 278.279 227.483H273.547V230.554H278.279C278.272 230.506 278.266 230.459 278.26 230.412ZM271.137 232.628V231.952V226.084V225.409C271.137 224.946 270.813 224.57 270.415 224.57H263.549V233.467H270.415C270.813 233.467 271.137 233.091 271.137 232.628ZM257.605 232.628C257.605 233.09 257.93 233.467 258.328 233.467H261.139V224.57H258.328C257.93 224.57 257.605 224.946 257.605 225.409V226.084V231.952V232.628ZM255.196 230.553V227.483H247.221V230.553H255.196V230.553ZM240.625 250.728C240.625 251.191 240.949 251.567 241.348 251.567H244.089C244.488 251.567 244.812 251.191 244.812 250.728V248.258C244.812 247.895 244.612 247.589 244.334 247.472C244.297 247.456 244.26 247.443 244.222 247.435C244.179 247.425 244.135 247.419 244.089 247.419H241.348C241.303 247.419 241.259 247.425 241.217 247.435C241.209 247.436 241.201 247.438 241.193 247.44C241.153 247.45 241.115 247.464 241.078 247.481C241.068 247.486 241.059 247.491 241.049 247.497C240.8 247.629 240.625 247.92 240.625 248.258L240.625 250.728Z" fill="#231F20"/>
<path d="M276.363 285.507C274.439 285.507 272.874 283.69 272.874 281.456C272.874 279.221 274.439 277.404 276.363 277.404C278.288 277.404 279.854 279.221 279.854 281.456C279.854 283.69 278.288 285.507 276.363 285.507ZM276.363 280.201C275.768 280.201 275.283 280.764 275.283 281.456C275.283 282.148 275.768 282.711 276.363 282.711C276.959 282.711 277.444 282.148 277.444 281.456C277.444 280.764 276.959 280.201 276.363 280.201Z" fill="#231F20"/>
<path d="M297.329 257.13C296.5 257.13 295.696 256.786 295.064 256.16C293.601 254.71 293.427 252.147 294.676 250.448C295.34 249.545 296.308 249.027 297.331 249.027C298.161 249.027 298.965 249.372 299.596 249.997C301.06 251.448 301.234 254.011 299.984 255.71C299.32 256.612 298.353 257.13 297.329 257.13ZM298.032 252.124C297.781 251.876 297.513 251.824 297.332 251.824C297.014 251.824 296.714 251.984 296.509 252.264C296.484 252.297 296.462 252.33 296.442 252.365C296.439 252.369 296.437 252.373 296.435 252.377C296.417 252.408 296.399 252.44 296.384 252.473C296.384 252.473 296.384 252.473 296.384 252.473C296.177 252.909 296.213 253.452 296.475 253.846C296.476 253.847 296.477 253.848 296.478 253.849C296.496 253.877 296.516 253.903 296.537 253.929C296.541 253.934 296.545 253.94 296.549 253.945C296.574 253.976 296.601 254.005 296.628 254.032C296.879 254.281 297.148 254.333 297.329 254.333C297.646 254.333 297.947 254.172 298.152 253.893C298.539 253.367 298.485 252.574 298.032 252.124Z" fill="#231F20"/>
<path d="M285.561 224.967C287.485 224.967 289.05 226.784 289.05 229.018C289.05 231.253 287.485 233.07 285.561 233.07C283.636 233.07 282.07 231.253 282.07 229.018C282.07 226.784 283.636 224.967 285.561 224.967ZM285.561 230.273C286.156 230.273 286.641 229.71 286.641 229.018C286.641 228.326 286.156 227.763 285.561 227.763C284.965 227.763 284.48 228.326 284.48 229.018C284.48 229.71 284.965 230.273 285.561 230.273Z" fill="#231F20"/>
</g>
<g clip-path="url(#clip3_3_490)">
<path d="M210.943 214.215V218.314C210.943 219.726 209.592 220.871 207.924 220.871C206.257 220.871 204.905 219.726 204.905 218.314V206.99C204.905 205.578 206.257 204.433 207.924 204.433C209.592 204.433 210.943 205.578 210.943 206.99V212.17" fill="#36A1CB"/>
<path d="M207.553 218.377V207.053C207.553 205.928 208.411 204.974 209.602 204.631C209.298 204.544 208.972 204.496 208.632 204.496C206.965 204.496 205.613 205.641 205.613 207.053V218.377C205.613 219.789 206.965 220.934 208.632 220.934C208.972 220.934 209.298 220.886 209.602 220.799C208.411 220.456 207.553 219.502 207.553 218.377Z" fill="#2B80AF"/>
<path d="M207.924 204.433C208.406 204.433 208.861 204.529 209.265 204.699V197.649H206.584V204.699C206.987 204.529 207.443 204.433 207.924 204.433Z" fill="#CCC3A8"/>
<path d="M219.007 195.377L217.483 197.649H212.181H212.044H211.133H210.155H210.017H205.832H205.694H204.716H203.805H203.667H198.366L196.842 195.377" fill="#7C7A75"/>
<path d="M210.944 208.048H204.933V210.32H210.944V208.048Z" fill="#8BD8F7"/>
<path d="M207.924 220.872C209.577 220.872 210.916 219.737 210.916 218.338C210.916 216.938 209.577 215.804 207.924 215.804C206.272 215.804 204.933 216.938 204.933 218.338C204.933 219.737 206.272 220.872 207.924 220.872Z" fill="#FFB92E"/>
<path d="M204.924 228.038C203.589 227.22 202.792 225.899 202.792 224.506C202.792 222.622 204.211 221.014 206.19 220.407C205.414 219.944 204.906 219.179 204.906 218.314V218.233C201.992 219.247 199.934 221.677 199.934 224.506C199.934 226.673 201.172 228.727 203.248 229.999C203.887 230.391 204.78 230.27 205.243 229.729C205.706 229.187 205.563 228.43 204.924 228.038Z" fill="#CCC3A8"/>
<path d="M210.943 218.224V218.314C210.943 219.176 210.439 219.938 209.667 220.401C211.657 221.005 213.084 222.617 213.084 224.507C213.084 225.899 212.287 227.22 210.953 228.038C210.314 228.431 210.171 229.187 210.634 229.729C210.913 230.056 211.35 230.229 211.792 230.229C212.083 230.229 212.376 230.155 212.629 229.999C214.704 228.727 215.942 226.673 215.942 224.507C215.942 221.668 213.872 219.233 210.943 218.224Z" fill="#CCC3A8"/>
<path d="M201.081 197.231L199.527 194.838C199.419 194.673 199.417 194.472 199.52 194.305C199.623 194.137 199.818 194.024 200.04 194.004L197.956 194.193C197.734 194.213 197.539 194.326 197.435 194.493C197.332 194.661 197.335 194.861 197.442 195.027L198.997 197.42C199.126 197.62 199.385 197.734 199.652 197.709L201.736 197.521C201.469 197.545 201.211 197.431 201.081 197.231Z" fill="#6B6861"/>
<path d="M207.553 208.111H205.614V210.383H207.553V208.111Z" fill="#57BEDD"/>
<path d="M207.479 218.4C207.479 217.379 208.039 216.47 208.913 215.878C208.821 215.871 208.727 215.866 208.632 215.866C206.98 215.866 205.641 217.001 205.641 218.4C205.641 219.8 206.98 220.934 208.632 220.934C208.727 220.934 208.821 220.929 208.913 220.922C208.039 220.331 207.479 219.421 207.479 218.4Z" fill="#F79E28"/>
<path d="M221.694 195.377H194.382H187.205C186.545 195.377 186.011 194.924 186.011 194.366V194.117C186.011 193.559 186.545 193.106 187.205 193.106H194.382H221.466H228.644C229.303 193.106 229.838 193.558 229.838 194.117V194.366C229.838 194.924 229.303 195.377 228.644 195.377H224.42H224.108" fill="#CCC3A8"/>
<path d="M188.624 194.429V194.18C188.624 193.621 189.159 193.169 189.819 193.169H187.913C187.254 193.169 186.719 193.621 186.719 194.18V194.429C186.719 194.987 187.254 195.44 187.913 195.44H189.819C189.159 195.44 188.624 194.987 188.624 194.429Z" fill="#C9B585"/>
<path d="M228.644 192.5H187.205C186.153 192.5 185.296 193.226 185.296 194.117V194.366C185.296 195.257 186.153 195.982 187.205 195.982H196.426L197.745 197.948C197.872 198.137 198.109 198.254 198.366 198.254H205.869V204.352C204.859 204.918 204.191 205.889 204.191 206.99V217.841C201.155 219.065 199.219 221.638 199.219 224.506C199.219 226.867 200.568 229.104 202.829 230.49C203.197 230.715 203.631 230.835 204.085 230.835C204.085 230.835 204.085 230.835 204.085 230.835C204.771 230.835 205.42 230.554 205.822 230.084C206.158 229.691 206.293 229.211 206.202 228.732C206.112 228.253 205.807 227.832 205.343 227.548C204.193 226.843 203.506 225.706 203.506 224.506C203.506 223.027 204.545 221.685 206.123 221.083C206.657 221.333 207.271 221.477 207.924 221.477C208.582 221.477 209.2 221.331 209.738 221.077C211.325 221.677 212.37 223.021 212.37 224.506C212.37 225.706 211.683 226.843 210.534 227.548C209.576 228.135 209.362 229.273 210.055 230.084C210.457 230.554 211.107 230.835 211.793 230.835C212.246 230.835 212.681 230.715 213.049 230.489C215.308 229.103 216.657 226.867 216.657 224.507C216.657 221.627 214.71 219.05 211.658 217.83V214.215C211.658 213.88 211.338 213.61 210.943 213.61C210.549 213.61 210.229 213.88 210.229 214.215V215.881C209.595 215.454 208.795 215.198 207.924 215.198C207.054 215.198 206.253 215.454 205.62 215.881V210.925H210.229V212.17C210.229 212.505 210.549 212.775 210.943 212.775C211.338 212.775 211.658 212.505 211.658 212.17V210.32V208.048V206.99C211.658 205.889 210.99 204.919 209.98 204.352V198.254H217.483C217.74 198.254 217.977 198.137 218.104 197.948L219.423 195.982H221.694C222.089 195.982 222.409 195.711 222.409 195.377C222.409 195.043 222.089 194.772 221.694 194.772H219.022C219.022 194.772 219.022 194.772 219.021 194.772H196.828C196.828 194.772 196.827 194.772 196.827 194.772H187.205C186.941 194.772 186.726 194.59 186.726 194.366V194.117C186.726 193.893 186.941 193.711 187.205 193.711H228.644C228.908 193.711 229.124 193.893 229.124 194.117V194.366C229.124 194.59 228.908 194.772 228.644 194.772H224.108C223.713 194.772 223.393 195.043 223.393 195.377C223.393 195.711 223.713 195.982 224.108 195.982H228.644C229.696 195.982 230.553 195.257 230.553 194.366V194.117C230.553 193.226 229.697 192.5 228.644 192.5ZM202.077 224.506C202.077 226.093 202.985 227.596 204.505 228.528C204.66 228.623 204.761 228.763 204.792 228.923C204.822 229.083 204.777 229.243 204.665 229.374C204.529 229.533 204.317 229.624 204.085 229.624C203.934 229.624 203.79 229.585 203.667 229.509C201.777 228.35 200.648 226.48 200.648 224.507C200.648 222.264 202.064 220.237 204.323 219.146C204.387 219.344 204.473 219.535 204.579 219.715C204.579 219.716 204.579 219.716 204.579 219.716C204.605 219.76 204.632 219.804 204.66 219.846C204.664 219.853 204.669 219.86 204.674 219.867C204.698 219.903 204.722 219.938 204.748 219.973C204.759 219.988 204.77 220.003 204.782 220.018C204.801 220.044 204.821 220.07 204.842 220.096C204.86 220.119 204.88 220.141 204.899 220.164C204.913 220.181 204.928 220.198 204.943 220.215C204.948 220.221 204.953 220.227 204.958 220.233C203.2 221.116 202.077 222.737 202.077 224.506ZM215.228 224.506C215.228 226.48 214.1 228.35 212.21 229.509C212.088 229.584 211.943 229.624 211.793 229.624C211.56 229.624 211.349 229.533 211.213 229.374C210.981 229.103 211.053 228.724 211.372 228.528C212.892 227.596 213.799 226.093 213.799 224.506C213.799 222.728 212.668 221.104 210.899 220.224C210.902 220.22 210.905 220.216 210.908 220.213C210.928 220.19 210.947 220.167 210.966 220.145C210.98 220.127 210.995 220.111 211.009 220.093C211.039 220.056 211.067 220.018 211.096 219.98C211.098 219.977 211.101 219.974 211.103 219.97C211.29 219.714 211.435 219.433 211.53 219.135C213.803 220.223 215.228 222.254 215.228 224.506ZM207.924 216.409C209.18 216.409 210.202 217.274 210.202 218.337C210.202 219.368 209.243 220.212 208.042 220.264C208.003 220.265 207.964 220.266 207.924 220.266C207.885 220.266 207.846 220.265 207.807 220.264C206.606 220.212 205.647 219.368 205.647 218.337C205.647 217.274 206.669 216.409 207.924 216.409ZM205.647 209.714V208.653H210.229V209.714H205.647ZM210.229 207.443H205.62V206.99C205.62 206.219 206.15 205.552 206.918 205.235C206.937 205.227 206.956 205.22 206.975 205.212C207.017 205.196 207.06 205.181 207.103 205.167C207.113 205.163 207.123 205.16 207.134 205.157C207.159 205.149 207.184 205.142 207.209 205.135C207.222 205.131 207.235 205.128 207.248 205.124C207.273 205.118 207.299 205.112 207.324 205.106C207.337 205.103 207.351 205.1 207.364 205.097C207.389 205.091 207.415 205.087 207.44 205.082C207.455 205.079 207.469 205.077 207.484 205.074C207.508 205.07 207.533 205.067 207.558 205.063C207.575 205.061 207.592 205.059 207.609 205.057C207.632 205.054 207.654 205.052 207.677 205.05C207.7 205.048 207.722 205.046 207.745 205.045C207.763 205.043 207.781 205.042 207.799 205.041C207.841 205.039 207.882 205.038 207.924 205.038C207.966 205.038 208.008 205.039 208.05 205.041C208.068 205.042 208.086 205.043 208.104 205.045C208.127 205.046 208.149 205.048 208.172 205.05C208.194 205.052 208.217 205.054 208.24 205.057C208.257 205.059 208.274 205.061 208.291 205.063C208.316 205.066 208.341 205.07 208.365 205.074C208.38 205.077 208.394 205.079 208.408 205.082C208.434 205.087 208.46 205.091 208.485 205.097C208.498 205.1 208.511 205.103 208.524 205.106C208.55 205.112 208.576 205.118 208.602 205.124C208.614 205.128 208.626 205.131 208.638 205.135C208.664 205.142 208.69 205.149 208.716 205.157C208.72 205.158 208.723 205.159 208.727 205.161C208.778 205.177 208.827 205.194 208.876 205.213C208.894 205.22 208.913 205.227 208.931 205.235C209.698 205.552 210.229 206.219 210.229 206.99V207.443H210.229V207.443ZM208.551 203.872C208.535 203.869 208.518 203.868 208.502 203.865C208.493 203.864 208.485 203.863 208.477 203.862C208.427 203.856 208.378 203.851 208.328 203.846C208.315 203.845 208.301 203.844 208.287 203.843C208.241 203.839 208.195 203.836 208.149 203.834C208.134 203.833 208.119 203.832 208.104 203.831C208.044 203.829 207.985 203.827 207.925 203.827C207.865 203.827 207.805 203.829 207.745 203.831C207.73 203.832 207.715 203.833 207.7 203.834C207.654 203.836 207.608 203.839 207.562 203.843C207.548 203.844 207.534 203.845 207.52 203.846C207.471 203.851 207.422 203.856 207.373 203.862C207.364 203.863 207.355 203.864 207.347 203.865C207.331 203.868 207.314 203.869 207.298 203.872V198.254H208.551V203.872ZM217.067 197.043H209.265H206.584H198.782L198.07 195.982H217.779L217.067 197.043Z" fill="#231F20"/>
<path d="M207.924 219.09C208.415 219.09 208.813 218.753 208.813 218.337C208.813 217.921 208.415 217.584 207.924 217.584C207.434 217.584 207.036 217.921 207.036 218.337C207.036 218.753 207.434 219.09 207.924 219.09Z" fill="#231F20"/>
</g>
<path d="M207.617 309.001C200.132 309.001 186.711 289.191 186.711 264.057C186.711 253.227 191.81 238.901 207.617 238.901C225.501 238.901 229.138 249.19 229.138 263.801C229.138 284.678 217.561 309.001 207.617 309.001Z" fill="#E8E8E8" stroke="black"/>
<path d="M191.452 254.659C192.456 252.206 198.331 244.076 207.877 243.813C216.907 243.564 224.116 252.194 225.27 255.781C226.193 258.65 227.237 263.818 207.877 263.321C189.303 262.843 190.211 257.694 191.452 254.659Z" fill="black" stroke="black"/>
<path d="M227.984 42.6736C222.496 44.6078 217.004 45.8225 211.415 46.4794C210.115 47.9875 208.21 49.2086 206.581 49.9219C199.947 52.8262 191.761 53.3107 184.708 53.3107C173.969 53.3107 164.356 55.3076 154.656 60.7786C144.48 66.5182 134.076 76.927 133.399 89.96C133.211 93.5899 132.81 98.1014 134.132 101.538C137.02 109.043 143.493 115.4 149.613 119.863C164.148 130.463 182.421 137.72 199.603 141.482C210.489 143.866 218.762 140.945 228.629 136.587C238.302 132.315 248.866 130.044 258.946 127.174C270.041 124.014 285.644 123.434 291.08 110.732C294.401 102.971 286.582 95.8818 282.606 90.4306C278.327 84.5626 273.182 79.424 273.811 71.5726C274.33 65.0834 275.773 58.6736 276.86 52.2752C277.545 48.244 278.574 43.0359 277.036 39.0652C275.198 34.3231 267 34.7796 263.343 34.8292C251.102 34.995 239.513 38.6101 227.984 42.6736Z" fill="#8D8D8D" fill-opacity="0.28"/>
<path d="M231.864 37.3436C229.418 34.7894 227.24 32.0339 225.089 29.2568C220.786 32.2185 215.946 34.1929 211.019 36.0678C205.122 38.3114 199.747 41.1563 194.13 44.0416C189.352 46.4958 184.856 49.0504 180.619 52.4761C173.607 58.146 166.242 63.58 160.039 70.2666C154.042 76.7307 149.143 84.5996 144.64 92.3097C141.106 98.3619 139.173 104.114 139.706 111.287C140.221 118.203 142.776 123.969 146.213 129.769C151.596 138.852 157.227 148.071 163.4 156.561C165.723 159.756 168.316 162.82 171.778 164.606C175.93 166.748 181.007 167.214 185.52 167.76C193.493 168.725 201.577 168.61 209.578 168.185C216.386 167.823 223.415 167.362 230.026 165.456C241.919 162.027 252.698 154.222 260.475 144.086C267.63 134.762 270.144 124.119 269.565 112.227C268.903 98.6318 266.242 85.5784 259.995 73.651C252.763 59.8427 242.378 48.3195 231.864 37.3436Z" fill="#C4C4C4" fill-opacity="0.47"/>
<path d="M241.699 35.2704C238.746 33.1876 235.732 31.2588 232.739 29.3036C228.344 32.1541 223.627 34.0907 219.148 36.8297C213.232 40.4478 207.472 43.9371 201.299 47.0362C194.347 50.5269 187.307 53.1533 180.09 55.9137C167.541 60.7128 154.725 65.4367 143.266 72.8182C137.639 76.4429 128.388 82.0033 129.59 90.3074C130.062 93.5702 131.39 96.5845 132.521 99.6279C133.9 103.34 135.555 107.103 137.62 110.437C142.527 118.356 147.839 126.073 154.227 132.675C157.517 136.075 160.638 139.425 164.526 142.066C170.425 146.074 176.587 149.234 183.169 151.741C190.367 154.484 197.711 156.841 205.124 158.829C210.163 160.181 215.436 161.587 220.655 161.735C230.935 162.027 240.617 157.967 248.984 151.794C257.254 145.694 265.717 137.894 268.141 127.04C271.223 113.24 272.275 98.9795 269.101 85.1156C266.591 74.1489 262.412 63.9487 256.948 54.3189C254.787 50.5087 253.018 46.4177 250.375 42.943C247.976 39.788 244.848 37.4906 241.699 35.2704Z" fill="#6D6D6D" fill-opacity="0.24"/>
<path d="M231.185 34.8806C228.286 34.2207 225.343 33.6815 222.374 33.2419C221.835 33.93 221.295 34.6131 220.754 35.2881C213.257 44.6495 198.811 41.6868 188.766 41.3482C183.512 41.1711 178.678 41.5354 173.632 43.1202C170.17 44.2075 167.717 46.1936 164.791 48.2943C160.768 51.182 156.601 53.6039 152.903 57.0123C148.842 60.7545 144.257 64.6027 141.18 69.3452C135.479 78.1315 130.809 88.4494 129.159 99.1141C128.447 103.722 128.155 109.649 129.093 114.247C129.734 117.388 130.969 121.64 133.166 123.957C137.013 128.013 141.699 131.402 145.882 135.049C149.636 138.322 152.221 143.582 156.446 146.142C165.302 151.509 175.979 153.668 185.951 154.984C189.289 155.424 192.593 156.168 195.935 156.543C202.339 157.262 208.846 157.057 215.274 157.057C224.673 157.057 234.436 157.978 243.636 155.586C248.904 154.217 253.465 151.63 258.422 149.42C261.722 147.949 265.035 146.131 267.86 143.767C275.58 137.308 280.042 127.516 282.579 117.56C284.457 110.19 285.881 103.263 286.172 95.6233C286.366 90.535 286.751 85.5609 286.751 80.4376C286.751 77.9859 286.929 75.4606 286.437 73.0485C286.119 71.4881 285.716 70.0007 285.559 68.406C285.201 64.7622 281.597 61.4293 279.731 58.5716C277.653 55.388 276.662 51.4394 273.787 48.9322C271.127 46.6127 267.893 45.673 264.664 44.4491C253.748 40.3116 242.519 37.4598 231.185 34.8806Z" fill="#B1B1B1" fill-opacity="0.21"/>
<path d="M208.443 141.577C200.729 141.577 179.942 119.969 183.949 83.9057L206.94 85.2966L229.531 82.7135C233.438 116.243 216.157 141.577 208.443 141.577Z" fill="#E8E8E8" stroke="black"/>
<path d="M229.375 77.2494C230.577 67.861 226.47 50.2268 205.482 49.3823C187.7 50.8229 182.05 72.4523 186.398 76.9513C194.462 85.2966 215.7 89.0718 229.375 77.2494Z" fill="#E8E8E8" stroke="black"/>
<path d="M204.837 73.5735C202.182 72.3814 212 54.151 220.465 54.151C225.824 58.274 229.13 64.5826 229.481 72.7787C229.831 80.9749 210.397 77.6468 204.837 73.5735Z" fill="black" stroke="black"/>
<path d="M224.771 70.8651C224.873 68.3826 218.732 66.1685 214.216 66.5039C207.821 67.242 218.834 73.8844 221.625 74.5553C222.511 74.7683 224.618 74.6199 224.771 70.8651Z" fill="#1EAECD" stroke="black"/>
<path d="M226.434 70.4228C226.857 69.5476 227.556 68.5376 228.838 67.6623C229.13 69.4129 229.246 69.7495 229.479 72.8467C229.52 73.3833 228.664 73.6547 227.6 73.722C226.908 73.7658 226.157 71.2308 226.434 70.4228Z" fill="#1EAECD" stroke="black"/>
<path d="M183.949 83.9057C183.699 83.5083 187.155 82.1671 193.216 81.571L197.023 83.0612L201.28 84.1044L205.588 84.7005H209.946L214.254 84.2534L218.461 83.2599L222.619 81.6704C222.619 81.6704 230.073 82.6193 229.581 82.7135C209.094 86.6378 207.291 85.3462 183.949 83.9057Z" fill="white" stroke="black"/>
<path d="M238.128 98.4994C238.061 99.4266 237.737 101.299 236.976 101.331C211.398 102.384 195.27 102.484 190.592 100.735C189.824 100.205 189.058 99.553 188.789 98.4994L182.027 98.0026C181.777 95.8832 181.426 91.6444 182.027 91.6444H183.38L184.331 88.3659H183.129C184.014 86.3127 186.024 82.3256 186.986 82.8024H193.598H194.499L192.153 88.0177L192.897 87.9685C207.573 89.9058 236.034 94.7242 232.467 98.4994H238.128Z" fill="#E7E7E7"/>
<path d="M192.145 88.0182C206.104 90.0714 233.59 95.0421 231.866 98.4994H232.467M192.145 88.0182L191.996 88.3659M192.145 88.0182L192.897 87.9685C207.573 89.9058 236.034 94.7242 232.467 98.4994M183.38 91.6444C182.686 91.6444 182.187 91.6444 182.027 91.6444C181.426 91.6444 181.777 95.8832 182.027 98.0026L188.789 98.4994C189.058 99.553 189.824 100.205 190.593 100.735C195.27 102.484 211.398 102.384 236.976 101.331C237.737 101.299 238.061 99.4266 238.128 98.4994H232.467M183.38 91.6444L184.331 88.3659H184.732M183.38 91.6444C183.476 91.6444 183.576 91.6444 183.68 91.6444M184.732 88.3659L183.68 91.6444M184.732 88.3659H183.129C184.014 86.3127 186.024 82.3256 186.986 82.8024H193.598M184.732 88.3659H191.394M183.68 91.6444C185.629 91.6444 188.779 91.6444 190.593 91.6444L191.996 88.3659M191.996 88.3659L194.499 82.8024H193.598M191.996 88.3659H191.394M193.598 82.8024L191.394 88.3659" stroke="black"/>
<path d="M237.896 93.7908H223.27C230.683 95.579 232.386 97.2183 232.228 98.4601H237.896V93.7908Z" fill="black" stroke="black"/>
<path d="M242.805 93.8901H237.896V96.0758H242.299C241.975 96.0758 242.501 94.6187 242.805 93.8901Z" fill="#313131" fill-opacity="0.94" stroke="black"/>
<path d="M242.003 96.7712H237.896V98.4521C239.092 98.4702 241.359 98.4521 241.552 98.4521C241.74 98.4521 241.903 97.864 242.003 96.7712Z" fill="#3B3B3B" stroke="black"/>
<path d="M237.896 96.7712V96.0758H241.903L241.703 96.7712H237.896Z" fill="black" stroke="black"/>
<mask id="path-86-inside-1_3_490" fill="white">
<ellipse cx="193.466" cy="84.2037" rx="0.250448" ry="0.248369"/>
</mask>
<ellipse cx="193.466" cy="84.2037" rx="0.250448" ry="0.248369" fill="#D9D9D9"/>
<path d="M193.217 84.2037C193.217 84.0608 193.332 83.9521 193.466 83.9521V84.9521C193.877 84.9521 194.217 84.621 194.217 84.2037H193.217ZM193.466 83.9521C193.6 83.9521 193.716 84.0608 193.716 84.2037H192.716C192.716 84.621 193.056 84.9521 193.466 84.9521V83.9521ZM193.716 84.2037C193.716 84.3466 193.6 84.4554 193.466 84.4554V83.4554C193.056 83.4554 192.716 83.7865 192.716 84.2037H193.716ZM193.466 84.4554C193.332 84.4554 193.217 84.3466 193.217 84.2037H194.217C194.217 83.7865 193.877 83.4554 193.466 83.4554V84.4554Z" fill="black" mask="url(#path-86-inside-1_3_490)"/>
<ellipse cx="193.466" cy="84.2037" rx="0.0500898" ry="0.0496731" fill="#FF0000"/>
<line y1="-0.5" x2="42.0755" y2="-0.5" transform="matrix(0.999997 -0.00246078 0.00250216 0.999997 193.416 84.2534)" stroke="#FF0000"/>
<ellipse cx="193.016" cy="85.2469" rx="0.300538" ry="0.298042" fill="#878787"/>
<path d="M188.908 90.3136L188.207 91.6548H190.611L191.112 90.3633L188.908 90.3136Z" fill="black" stroke="black"/>
<ellipse cx="184.4" cy="95.3307" rx="1.30233" ry="1.24185" fill="#D9D9D9"/>
<ellipse cx="187.506" cy="95.5294" rx="1.30233" ry="1.24185" fill="#D9D9D9"/>
<ellipse cx="190.611" cy="95.7281" rx="1.30233" ry="1.24185" fill="#D9D9D9"/>
<path d="M210.454 29.2669C200.997 25.452 210.905 9.79471 220.872 4.28093C225.273 1.8469 232.844 0.456061 241.86 1.20117C250.876 1.94628 251.678 2.24432 258.29 3.53584C264.901 4.82736 268.057 7.65877 270.562 10.9869C273.066 14.3151 273.712 23.3359 272.265 25.1937C270.562 27.3793 259.742 32.8931 256.486 33.4892C253.23 34.0853 248.472 34.135 245.016 36.0722C244.147 36.5592 229.137 44.3181 229.388 43.871C229.638 43.424 232.093 35.0291 232.043 34.135C231.992 33.2408 222.275 34.0356 210.454 29.2669Z" fill="#BDBDBD" fill-opacity="0.69" stroke="black" stroke-width="1.5"/>
<path d="M210.454 29.2669C200.997 25.452 210.905 9.79471 220.872 4.28093C225.273 1.8469 232.844 0.456061 241.86 1.20117C250.876 1.94628 251.678 2.24432 258.29 3.53584C264.901 4.82736 268.057 7.65877 270.562 10.9869C273.066 14.3151 273.712 23.3359 272.265 25.1937C270.562 27.3793 259.742 32.8931 256.486 33.4892C253.23 34.0853 248.472 34.135 245.016 36.0722C244.147 36.5592 229.137 44.3181 229.388 43.871C229.638 43.424 232.093 35.0291 232.043 34.135C231.992 33.2408 222.275 34.0356 210.454 29.2669Z" fill="#BDBDBD" fill-opacity="0.69" stroke="black" stroke-width="1.5"/>
<path d="M96.5144 372.693C91.1905 374.55 85.8622 375.717 80.4401 376.347C79.1783 377.795 77.3307 378.968 75.75 379.653C69.3143 382.441 61.3727 382.906 54.5305 382.906C44.1121 382.906 34.7855 384.823 25.3751 390.076C15.5027 395.587 5.40928 405.58 4.75291 418.093C4.57011 421.579 4.1811 425.91 5.46402 429.21C8.26536 436.416 14.5453 442.518 20.4826 446.804C34.5834 456.981 52.3115 463.948 68.9803 467.561C79.5413 469.85 87.5681 467.045 97.1402 462.861C106.525 458.759 116.773 456.579 126.552 453.823C137.316 450.789 152.453 450.232 157.727 438.037C160.949 430.585 153.363 423.779 149.506 418.545C145.354 412.911 140.363 407.978 140.973 400.44C141.477 394.209 142.877 388.055 143.931 381.912C144.596 378.042 145.594 373.041 144.102 369.229C142.319 364.676 134.366 365.114 130.818 365.162C118.943 365.321 107.699 368.792 96.5144 372.693Z" fill="#FF0000" fill-opacity="0.28"/>
<path d="M100.279 367.576C97.9051 365.124 95.793 362.478 93.7057 359.812C89.5314 362.655 84.8355 364.551 80.0553 366.351C74.335 368.505 69.12 371.237 63.671 374.007C59.036 376.363 54.6737 378.816 50.5636 382.105C43.7609 387.549 36.6154 392.766 30.5973 399.186C24.7793 405.392 20.027 412.947 15.6587 420.35C12.2297 426.16 10.3539 431.683 10.8719 438.57C11.3712 445.21 13.8498 450.746 17.1846 456.314C22.4067 465.035 27.869 473.887 33.8581 482.038C36.1117 485.105 38.6277 488.047 41.986 489.762C46.0146 491.819 50.9398 492.265 55.3183 492.79C63.0529 493.716 70.8956 493.606 78.6578 493.198C85.2629 492.851 92.0818 492.408 98.4957 490.578C110.034 487.286 120.49 479.792 128.036 470.061C134.977 461.108 137.416 450.89 136.854 439.472C136.212 426.419 133.63 413.887 127.57 402.435C120.553 389.178 110.479 378.114 100.279 367.576Z" fill="#A74040" fill-opacity="0.47"/>
<path d="M109.82 365.585C106.955 363.586 104.031 361.734 101.128 359.857C96.8636 362.593 92.2873 364.453 87.9423 367.083C82.2025 370.556 76.6146 373.906 70.6263 376.882C63.8811 380.233 57.052 382.755 50.0496 385.405C37.8754 390.013 25.4418 394.548 14.3254 401.635C8.86663 405.116 -0.108906 410.454 1.05737 418.427C1.51561 421.56 2.80325 424.454 3.90053 427.376C5.23901 430.94 6.84405 434.553 8.84794 437.754C13.608 445.357 18.7622 452.766 24.9592 459.105C28.151 462.369 31.1787 465.586 34.9504 468.121C40.6736 471.969 46.6521 475.003 53.0373 477.41C60.0206 480.044 67.1454 482.307 74.3369 484.215C79.2253 485.513 84.3413 486.863 89.404 487.006C99.3773 487.285 108.77 483.388 116.888 477.461C124.91 471.604 133.121 464.116 135.473 453.695C138.462 440.445 139.483 426.753 136.404 413.442C133.969 402.913 129.914 393.12 124.614 383.874C122.517 380.216 120.801 376.288 118.237 372.952C115.909 369.923 112.875 367.717 109.82 365.585Z" fill="#FF0000" fill-opacity="0.24"/>
<path d="M99.6201 365.211C96.807 364.578 93.9525 364.06 91.0722 363.638C90.5493 364.298 90.0248 364.954 89.5004 365.602C82.2265 374.59 68.2125 371.746 58.4666 371.421C53.3697 371.251 48.6801 371.601 43.785 373.122C40.4262 374.166 38.0464 376.073 35.2074 378.09C31.3046 380.862 27.2623 383.188 23.6741 386.46C19.7346 390.053 15.287 393.748 12.3015 398.301C6.77027 406.737 2.24033 416.643 0.639732 426.882C-0.051894 431.307 -0.334698 436.997 0.57548 441.411C1.19744 444.428 2.39496 448.509 4.52698 450.734C8.25896 454.629 12.8053 457.882 16.8634 461.384C20.5047 464.527 23.0133 469.576 27.1116 472.034C35.7035 477.187 46.0621 479.26 55.7359 480.524C58.9743 480.947 62.18 481.661 65.4219 482.021C71.6353 482.711 77.9473 482.514 84.1835 482.514C93.3017 482.514 102.774 483.399 111.699 481.102C116.809 479.787 121.235 477.304 126.044 475.182C129.245 473.769 132.46 472.023 135.2 469.755C142.69 463.552 147.018 454.151 149.48 444.593C151.302 437.516 152.683 430.866 152.965 423.531C153.154 418.646 153.528 413.87 153.528 408.951C153.528 406.597 153.699 404.173 153.222 401.857C152.914 400.358 152.523 398.93 152.371 397.399C152.023 393.901 148.527 390.701 146.717 387.957C144.701 384.901 143.74 381.109 140.95 378.702C138.37 376.475 135.232 375.573 132.099 374.398C121.509 370.426 110.616 367.688 99.6201 365.211Z" fill="#AA4C46" fill-opacity="0.21"/>
<path d="M77.654 475.092C70.1704 475.092 50.0037 454.345 53.8913 419.721L76.1962 421.056L98.1123 418.576C101.903 450.768 85.1376 475.092 77.654 475.092Z" fill="#E8E8E8" stroke="black"/>
<path d="M97.9609 413.33C99.1272 404.316 95.1425 387.385 74.7814 386.574C57.5303 387.958 52.049 408.724 56.2669 413.044C64.0906 421.056 84.6946 424.681 97.9609 413.33Z" fill="#E8E8E8" stroke="black"/>
<path d="M60.0142 410.421C57.1423 409.456 63.1242 393.538 76.9737 392.822C89.8512 394.205 93.3986 403.791 94.0789 409.276C94.7593 414.761 64.7279 416.43 60.0142 410.421Z" fill="black" stroke="black"/>
<path d="M75.5206 406.435C75.7002 405.755 70.5555 403.076 65.903 402.122C61.2865 402.122 68.0411 408.942 71.3455 409.896C72.193 410.141 74.8687 408.901 75.5206 406.435Z" fill="#1EAECD" stroke="black"/>
<path d="M78.1443 406.233C77.9741 405.586 82.8464 403.032 87.2525 402.122C91.6245 402.122 85.2276 408.624 82.0982 409.533C81.2956 409.766 78.7616 408.584 78.1443 406.233Z" fill="#1EAECD" stroke="black"/>
<path d="M53.8913 419.721C53.6483 419.339 57.0013 418.051 62.8813 417.479L66.5745 418.91L70.705 419.911L74.8841 420.484H79.1118L83.291 420.055L87.3729 419.101L91.4062 417.575C91.4062 417.575 98.638 418.486 98.1609 418.576C78.2857 422.344 76.5363 421.104 53.8913 419.721Z" fill="white" stroke="black"/>
<path d="M129.942 389.007L124.305 394.158L129.164 403.315C132.193 400.596 137.668 395.41 136.599 395.207C135.093 394.921 130.573 391.153 129.942 389.007Z" fill="#857272" stroke="black"/>
<path d="M129.99 389.007C131.497 389.531 136.794 394.348 136.696 395.255C136.659 395.604 131.157 392.107 129.99 389.007Z" fill="#857272" stroke="black"/>
<path d="M136.842 387.242L132.76 390.915L134.801 392.727L138.446 388.864L136.842 387.242Z" fill="#1F1D1D" stroke="black"/>
<ellipse cx="129.553" cy="390.581" rx="0.485947" ry="0.476924" fill="#D9D9D9"/>
<ellipse cx="135.676" cy="395.827" rx="0.485943" ry="0.476924" fill="#D9D9D9"/>
<path d="M135.336 396.715C135.336 396.978 135.118 397.191 134.85 397.191C134.581 397.191 134.364 396.978 134.364 396.715C134.364 396.451 134.581 396.238 134.85 396.238C135.118 396.238 135.336 396.451 135.336 396.715Z" fill="#D9D9D9"/>
<path d="M134.558 397.582C134.558 397.845 134.341 398.059 134.072 398.059C133.804 398.059 133.586 397.845 133.586 397.582C133.586 397.318 133.804 397.105 134.072 397.105C134.341 397.105 134.558 397.318 134.558 397.582Z" fill="#D9D9D9"/>
<path d="M133.732 398.393C133.732 398.656 133.514 398.87 133.246 398.87C132.978 398.87 132.76 398.656 132.76 398.393C132.76 398.129 132.978 397.916 133.246 397.916C133.514 397.916 133.732 398.129 133.732 398.393Z" fill="#D9D9D9"/>
<path d="M132.906 399.251C132.906 399.514 132.688 399.728 132.42 399.728C132.152 399.728 131.934 399.514 131.934 399.251C131.934 398.988 132.152 398.774 132.42 398.774C132.688 398.774 132.906 398.988 132.906 399.251Z" fill="#D9D9D9"/>
<path d="M132.08 400.062C132.08 400.325 131.862 400.539 131.594 400.539C131.326 400.539 131.108 400.325 131.108 400.062C131.108 399.798 131.326 399.585 131.594 399.585C131.862 399.585 132.08 399.798 132.08 400.062Z" fill="#D9D9D9"/>
<path d="M131.254 400.93C131.254 401.193 131.036 401.407 130.768 401.407C130.499 401.407 130.282 401.193 130.282 400.93C130.282 400.666 130.499 400.453 130.768 400.453C131.036 400.453 131.254 400.666 131.254 400.93Z" fill="#D9D9D9"/>
<path d="M130.282 401.693C130.282 401.956 130.064 402.17 129.796 402.17C129.528 402.17 129.31 401.956 129.31 401.693C129.31 401.43 129.528 401.216 129.796 401.216C130.064 401.216 130.282 401.43 130.282 401.693Z" fill="#D9D9D9"/>
<ellipse cx="128.678" cy="391.439" rx="0.485947" ry="0.476923" fill="#D9D9D9"/>
<ellipse cx="127.706" cy="392.202" rx="0.485943" ry="0.476924" fill="#D9D9D9"/>
<ellipse cx="126.832" cy="392.965" rx="0.485943" ry="0.476924" fill="#D9D9D9"/>
<ellipse cx="125.957" cy="393.728" rx="0.485947" ry="0.476924" fill="#D9D9D9"/>
<ellipse cx="125.082" cy="394.491" rx="0.485947" ry="0.476923" fill="#D9D9D9"/>
<ellipse cx="114.343" cy="421.771" rx="0.534542" ry="0.476923" fill="#A9A5A5"/>
<path d="M115.208 422.535C115.208 422.798 114.969 423.011 114.673 423.011C114.378 423.011 114.139 422.798 114.139 422.535C114.139 422.271 114.378 422.058 114.673 422.058C114.969 422.058 115.208 422.271 115.208 422.535Z" fill="#A9A5A5"/>
<ellipse cx="115.023" cy="423.202" rx="0.534538" ry="0.476925" fill="#A9A5A5"/>
<ellipse cx="115.412" cy="423.679" rx="0.534538" ry="0.476925" fill="#A9A5A5"/>
<ellipse cx="116.092" cy="423.488" rx="0.534538" ry="0.476925" fill="#A9A5A5"/>
<ellipse cx="116.481" cy="423.011" rx="0.534538" ry="0.476925" fill="#A9A5A5"/>
<ellipse cx="116.578" cy="422.248" rx="0.534538" ry="0.476923" fill="#A9A5A5"/>
<ellipse cx="116.578" cy="422.248" rx="0.534538" ry="0.476923" fill="#A9A5A5"/>
<ellipse cx="116.675" cy="421.581" rx="0.534542" ry="0.476923" fill="#A9A5A5"/>
<ellipse cx="116.675" cy="420.818" rx="0.534542" ry="0.476925" fill="#A9A5A5"/>
<g clip-path="url(#clip4_3_490)">
<path d="M137.328 383.347C136.844 384.86 137.822 386.509 139.511 387.03C141.201 387.551 142.964 386.746 143.448 385.233C143.935 383.712 143.475 382.232 144.386 381.342C144.386 381.342 143.427 381.214 142.528 382.274C142.528 382.274 141.315 380.228 142.707 378.317C142.707 378.317 140.782 378.392 140.33 380.426C139.942 382.171 139.515 382.349 139.515 382.349C139.954 380.979 138.953 380.002 138.953 380.002C138.763 381.783 137.767 381.977 137.328 383.347Z" fill="#FFB446"/>
<path d="M142.404 385.632C142.04 386.768 140.745 387.434 139.477 387.018C138.283 386.628 137.65 385.54 138.085 384.507C138.28 384.046 138.93 383.403 139.839 382.829L140.203 383.202C140.497 382.237 141.416 381.118 141.416 381.118C141.322 382.567 143.088 383.494 142.404 385.632Z" fill="#FFDC64"/>
<path d="M139.681 383.775C139.224 384.626 138.782 384.851 138.599 385.425C138.406 386.027 138.815 386.815 139.558 387.044C140.306 387.274 141.08 386.912 141.292 386.241C141.862 384.441 140.978 383.183 140.978 383.183C140.857 384.137 140.209 384.434 140.209 384.434C140.089 384.087 139.681 383.775 139.681 383.775Z" fill="white"/>
</g>
<path d="M125.201 394.884C121.752 389.985 107.079 410.451 100.173 421.297L99.9103 422.201V423.298L100.007 424.633L100.331 425.717C100.874 426.383 101.656 426.242 104.222 426.242C108.849 426.242 127.147 415.297 130.144 399.748L133.246 397.229L130.144 393.538L125.201 394.884Z" fill="#D9D9D9" stroke="black"/>
<path d="M123.853 403.41L121.607 401.741C121.364 402.17 121.035 403.037 121.618 403.41C122.735 404.125 123.173 404.125 123.853 403.41Z" fill="#626262" stroke="black"/>
<ellipse cx="116.675" cy="420.15" rx="0.534542" ry="0.476923" fill="#A9A5A5"/>
<ellipse cx="116.675" cy="419.387" rx="0.534542" ry="0.476923" fill="#A9A5A5"/>
<ellipse cx="116.675" cy="418.624" rx="0.534542" ry="0.476925" fill="#A9A5A5"/>
<ellipse cx="116.481" cy="417.956" rx="0.534538" ry="0.476923" fill="#A9A5A5"/>
<ellipse cx="116.481" cy="417.193" rx="0.534538" ry="0.476923" fill="#A9A5A5"/>
<ellipse cx="116.481" cy="416.43" rx="0.534538" ry="0.476925" fill="#A9A5A5"/>
<ellipse cx="116.481" cy="415.762" rx="0.534538" ry="0.476923" fill="#A9A5A5"/>
<ellipse cx="116.481" cy="414.904" rx="0.534538" ry="0.476923" fill="#A9A5A5"/>
<ellipse cx="116.578" cy="414.236" rx="0.534538" ry="0.476925" fill="#A9A5A5"/>
<ellipse cx="116.675" cy="413.378" rx="0.534542" ry="0.476923" fill="#A9A5A5"/>
<ellipse cx="116.675" cy="412.71" rx="0.534542" ry="0.476923" fill="#A9A5A5"/>
<ellipse cx="116.675" cy="411.947" rx="0.534542" ry="0.476925" fill="#A9A5A5"/>
<ellipse cx="116.87" cy="411.279" rx="0.534538" ry="0.476923" fill="#A9A5A5"/>
<ellipse cx="117.064" cy="410.611" rx="0.534542" ry="0.476923" fill="#A9A5A5"/>
<ellipse cx="117.259" cy="409.944" rx="0.534538" ry="0.476925" fill="#A9A5A5"/>
<ellipse cx="117.647" cy="409.371" rx="0.534538" ry="0.476924" fill="#A9A5A5"/>
<ellipse cx="117.939" cy="408.799" rx="0.534542" ry="0.476924" fill="#A9A5A5"/>
<ellipse cx="118.328" cy="408.227" rx="0.534542" ry="0.476924" fill="#A9A5A5"/>
<ellipse cx="118.716" cy="407.655" rx="0.534542" ry="0.476924" fill="#A9A5A5"/>
<ellipse cx="119.105" cy="406.987" rx="0.534542" ry="0.476924" fill="#A9A5A5"/>
<ellipse cx="119.494" cy="406.415" rx="0.534542" ry="0.476924" fill="#A9A5A5"/>
<ellipse cx="119.883" cy="405.842" rx="0.534542" ry="0.476924" fill="#A9A5A5"/>
<ellipse cx="120.369" cy="405.27" rx="0.534538" ry="0.476924" fill="#A9A5A5"/>
<ellipse cx="120.855" cy="404.793" rx="0.534538" ry="0.476924" fill="#A9A5A5"/>
<ellipse cx="121.34" cy="404.221" rx="0.534538" ry="0.476924" fill="#A9A5A5"/>
<ellipse cx="121.826" cy="403.648" rx="0.534542" ry="0.476924" fill="#A9A5A5"/>
<path d="M44.0586 468.784C41.7497 451.728 41.365 450.571 48.5353 425.227C50.7926 421.29 50.7497 424.122 51.033 427.126C53.6799 455.192 46.3193 468.784 46.3193 468.784C46.3193 468.784 44.44 471.601 44.0586 468.784Z" fill="#E8E8E8" stroke="black"/>
<path d="M89.6287 354.086C90.5184 348.586 95.5449 344.326 96.5777 343.756C98.2175 342.849 101.571 341.323 104.972 339.749C108.374 338.176 115.566 338.462 125.285 338.653C135.004 338.843 136.607 341.228 141.078 344.471C145.549 347.714 145.61 353.132 144.237 357.3C142.863 361.469 139.717 362.594 134.129 363.405C129.736 364.042 128.783 363.357 124.556 364.74C122.597 365.381 119.842 366.076 116.975 366.934C115.56 367.358 108.941 373.675 107.062 374.803C107.288 373.722 108.714 372.848 107.839 369.033C106.519 363.274 108.011 365.843 103.271 365.217C101.668 365.005 97.4886 364.597 94.5243 362.594C88.5077 358.528 89.3247 355.965 89.6287 354.086Z" fill="#BFBFBF" stroke="black" stroke-width="1.5"/>
<path d="M351.048 367.651C345.363 369.586 339.674 370.8 333.885 371.457C332.538 372.966 330.565 374.187 328.878 374.901C322.006 377.805 313.527 378.29 306.222 378.29C295.098 378.29 285.14 380.287 275.093 385.759C264.552 391.5 253.775 401.911 253.075 414.946C252.879 418.577 252.464 423.089 253.834 426.527C256.825 434.033 263.53 440.39 269.869 444.855C284.924 455.457 303.853 462.714 321.65 466.478C332.926 468.862 341.496 465.941 351.716 461.582C361.735 457.309 372.678 455.038 383.118 452.167C394.611 449.007 410.773 448.426 416.404 435.722C419.844 427.959 411.745 420.869 407.627 415.417C403.194 409.548 397.864 404.408 398.516 396.555C399.054 390.065 400.548 383.654 401.674 377.254C402.384 373.222 403.45 368.013 401.856 364.042C399.953 359.299 391.461 359.756 387.674 359.805C374.994 359.971 362.99 363.587 351.048 367.651Z" fill="#54A24D" fill-opacity="0.28"/>
<path d="M355.067 362.32C352.532 359.765 350.277 357.009 348.049 354.232C343.592 357.194 338.578 359.169 333.474 361.044C327.367 363.288 321.799 366.133 315.981 369.019C311.032 371.474 306.375 374.029 301.986 377.455C294.723 383.126 287.094 388.561 280.668 395.249C274.457 401.714 269.383 409.585 264.719 417.296C261.058 423.349 259.055 429.102 259.608 436.277C260.141 443.194 262.787 448.961 266.348 454.762C271.923 463.847 277.756 473.068 284.15 481.559C286.556 484.755 289.243 487.819 292.828 489.606C297.129 491.749 302.388 492.214 307.063 492.76C315.321 493.725 323.695 493.611 331.982 493.186C339.035 492.824 346.315 492.363 353.163 490.456C365.482 487.027 376.647 479.22 384.703 469.082C392.114 459.756 394.718 449.111 394.118 437.217C393.432 423.619 390.676 410.564 384.205 398.634C376.714 384.823 365.957 373.298 355.067 362.32Z" fill="#91CF7B" fill-opacity="0.47"/>
<path d="M365.254 360.246C362.195 358.163 359.073 356.234 355.973 354.278C351.421 357.129 346.534 359.066 341.895 361.806C335.767 365.425 329.801 368.915 323.407 372.014C316.205 375.506 308.914 378.133 301.438 380.893C288.439 385.693 275.164 390.418 263.295 397.801C257.467 401.426 247.884 406.988 249.129 415.294C249.618 418.557 250.993 421.572 252.165 424.616C253.594 428.329 255.307 432.092 257.447 435.427C262.529 443.348 268.032 451.066 274.649 457.669C278.057 461.07 281.289 464.421 285.316 467.062C291.427 471.07 297.81 474.231 304.628 476.739C312.084 479.482 319.691 481.839 327.369 483.828C332.588 485.18 338.051 486.586 343.456 486.734C354.104 487.026 364.133 482.966 372.8 476.792C381.366 470.69 390.132 462.889 392.643 452.033C395.835 438.231 396.925 423.967 393.638 410.101C391.038 399.132 386.708 388.93 381.05 379.298C378.81 375.487 376.978 371.396 374.241 367.92C371.755 364.765 368.515 362.467 365.254 360.246Z" fill="#4FD52D" fill-opacity="0.24"/>
<path d="M354.364 359.856C351.36 359.196 348.312 358.657 345.237 358.217C344.679 358.906 344.119 359.589 343.559 360.264C335.793 369.627 320.83 366.664 310.424 366.325C304.982 366.148 299.975 366.513 294.749 368.098C291.163 369.185 288.622 371.172 285.591 373.273C281.424 376.161 277.108 378.583 273.277 381.992C269.07 385.735 264.322 389.584 261.134 394.327C255.229 403.115 250.392 413.435 248.683 424.102C247.945 428.711 247.643 434.639 248.614 439.237C249.279 442.379 250.557 446.632 252.833 448.949C256.818 453.006 261.672 456.395 266.005 460.044C269.893 463.317 272.571 468.578 276.947 471.138C286.12 476.506 297.18 478.666 307.509 479.982C310.966 480.423 314.389 481.167 317.85 481.542C324.484 482.26 331.224 482.056 337.882 482.056C347.618 482.056 357.731 482.977 367.261 480.585C372.717 479.215 377.442 476.628 382.576 474.417C385.994 472.945 389.426 471.127 392.352 468.763C400.349 462.302 404.97 452.509 407.598 442.551C409.544 435.179 411.018 428.252 411.32 420.61C411.521 415.521 411.92 410.546 411.92 405.422C411.92 402.97 412.104 400.444 411.594 398.031C411.265 396.471 410.848 394.983 410.685 393.388C410.314 389.744 406.581 386.41 404.648 383.552C402.496 380.368 401.47 376.418 398.491 373.911C395.736 371.591 392.386 370.651 389.042 369.427C377.734 365.288 366.103 362.436 354.364 359.856Z" fill="#5D9841" fill-opacity="0.21"/>
<path d="M330.184 471.044C322.194 471.044 300.662 449.432 304.813 413.362L328.628 414.753L352.027 412.17C356.074 445.706 338.174 471.044 330.184 471.044Z" fill="#E8E8E8" stroke="black"/>
<path d="M351.866 406.705C353.111 397.314 348.857 379.677 327.117 378.832C308.698 380.273 302.846 401.907 307.349 406.406C315.703 414.753 337.701 418.529 351.866 406.705Z" fill="#E8E8E8" stroke="black"/>
<path d="M311.35 403.674C308.284 402.669 314.671 386.086 329.458 385.341C343.207 386.782 346.995 396.768 347.721 402.482C348.447 408.195 316.383 409.934 311.35 403.674Z" fill="black" stroke="black"/>
<path d="M327.906 399.522C328.098 398.814 322.605 396.023 317.638 395.029C312.709 395.029 319.921 402.134 323.449 403.127C324.354 403.382 327.21 402.09 327.906 399.522Z" fill="#1EAECD" stroke="black"/>
<path d="M330.708 399.312C330.526 398.637 335.728 395.976 340.432 395.029C345.1 395.029 338.271 401.802 334.929 402.749C334.072 402.992 331.367 401.761 330.708 399.312Z" fill="#1EAECD" stroke="black"/>
<path d="M304.813 413.362C304.554 412.965 308.134 411.623 314.411 411.027L318.355 412.517L322.765 413.561L327.227 414.157H331.741L336.203 413.71L340.561 412.716L344.867 411.126C344.867 411.126 352.589 412.075 352.079 412.17C330.859 416.095 328.991 414.803 304.813 413.362Z" fill="white" stroke="black"/>
<path d="M386.011 381.366L379.993 386.732L385.181 396.271C388.415 393.439 394.261 388.037 393.119 387.825C391.511 387.527 386.686 383.602 386.011 381.366Z" fill="#857272" stroke="black"/>
<path d="M386.063 381.366C387.672 381.913 393.327 386.931 393.223 387.875C393.183 388.239 387.308 384.596 386.063 381.366Z" fill="#857272" stroke="black"/>
<path d="M393.379 379.528L389.021 383.354L391.2 385.241L395.091 381.217L393.379 379.528Z" fill="#1F1D1D" stroke="black"/>
<ellipse cx="385.596" cy="383.006" rx="0.518841" ry="0.49683" fill="#D9D9D9"/>
<ellipse cx="392.134" cy="388.471" rx="0.518841" ry="0.49683" fill="#D9D9D9"/>
<path d="M391.77 389.396C391.77 389.67 391.538 389.892 391.252 389.892C390.965 389.892 390.733 389.67 390.733 389.396C390.733 389.121 390.965 388.899 391.252 388.899C391.538 388.899 391.77 389.121 391.77 389.396Z" fill="#D9D9D9"/>
<path d="M390.94 390.299C390.94 390.574 390.708 390.796 390.422 390.796C390.135 390.796 389.903 390.574 389.903 390.299C389.903 390.025 390.135 389.802 390.422 389.802C390.708 389.802 390.94 390.025 390.94 390.299Z" fill="#D9D9D9"/>
<path d="M390.058 391.144C390.058 391.418 389.826 391.641 389.539 391.641C389.253 391.641 389.021 391.418 389.021 391.144C389.021 390.869 389.253 390.647 389.539 390.647C389.826 390.647 390.058 390.869 390.058 391.144Z" fill="#D9D9D9"/>
<path d="M389.176 392.038C389.176 392.312 388.944 392.535 388.657 392.535C388.371 392.535 388.139 392.312 388.139 392.038C388.139 391.764 388.371 391.541 388.657 391.541C388.944 391.541 389.176 391.764 389.176 392.038Z" fill="#D9D9D9"/>
<path d="M388.294 392.883C388.294 393.157 388.062 393.38 387.775 393.38C387.489 393.38 387.257 393.157 387.257 392.883C387.257 392.608 387.489 392.386 387.775 392.386C388.062 392.386 388.294 392.608 388.294 392.883Z" fill="#D9D9D9"/>
<path d="M387.412 393.787C387.412 394.061 387.18 394.284 386.893 394.284C386.607 394.284 386.375 394.061 386.375 393.787C386.375 393.513 386.607 393.29 386.893 393.29C387.18 393.29 387.412 393.513 387.412 393.787Z" fill="#D9D9D9"/>
<path d="M386.375 394.582C386.375 394.856 386.142 395.079 385.856 395.079C385.569 395.079 385.337 394.856 385.337 394.582C385.337 394.307 385.569 394.085 385.856 394.085C386.142 394.085 386.375 394.307 386.375 394.582Z" fill="#D9D9D9"/>
<ellipse cx="384.662" cy="383.9" rx="0.518837" ry="0.49683" fill="#D9D9D9"/>
<ellipse cx="383.625" cy="384.695" rx="0.518841" ry="0.49683" fill="#D9D9D9"/>
<ellipse cx="382.691" cy="385.49" rx="0.518841" ry="0.496831" fill="#D9D9D9"/>
<ellipse cx="381.757" cy="386.285" rx="0.518837" ry="0.49683" fill="#D9D9D9"/>
<ellipse cx="380.823" cy="387.08" rx="0.518841" ry="0.496829" fill="#D9D9D9"/>
<ellipse cx="369.357" cy="415.498" rx="0.570724" ry="0.49683" fill="#A9A5A5"/>
<path d="M370.28 416.293C370.28 416.568 370.025 416.79 369.709 416.79C369.394 416.79 369.139 416.568 369.139 416.293C369.139 416.019 369.394 415.797 369.709 415.797C370.025 415.797 370.28 416.019 370.28 416.293Z" fill="#A9A5A5"/>
<ellipse cx="370.083" cy="416.989" rx="0.570721" ry="0.496832" fill="#A9A5A5"/>
<ellipse cx="370.498" cy="417.486" rx="0.570724" ry="0.49683" fill="#A9A5A5"/>
<ellipse cx="371.224" cy="417.287" rx="0.570724" ry="0.496832" fill="#A9A5A5"/>
<ellipse cx="371.64" cy="416.79" rx="0.570724" ry="0.496832" fill="#A9A5A5"/>
<ellipse cx="371.743" cy="415.995" rx="0.570724" ry="0.49683" fill="#A9A5A5"/>
<ellipse cx="371.743" cy="415.995" rx="0.570724" ry="0.49683" fill="#A9A5A5"/>
<ellipse cx="371.847" cy="415.3" rx="0.570724" ry="0.49683" fill="#A9A5A5"/>
<ellipse cx="371.847" cy="414.505" rx="0.570724" ry="0.496832" fill="#A9A5A5"/>
<g clip-path="url(#clip5_3_490)">
<path d="M393.898 375.47C393.381 377.046 394.425 378.764 396.229 379.306C398.033 379.849 399.915 379.011 400.432 377.435C400.952 375.85 400.461 374.309 401.434 373.382C401.434 373.382 400.41 373.248 399.449 374.353C399.449 374.353 398.154 372.221 399.641 370.23C399.641 370.23 397.585 370.308 397.102 372.428C396.688 374.245 396.233 374.431 396.233 374.431C396.701 373.004 395.632 371.985 395.632 371.985C395.43 373.84 394.366 374.043 393.898 375.47Z" fill="#FFB446"/>
<path d="M399.317 377.851C398.929 379.034 397.546 379.727 396.192 379.295C394.917 378.888 394.242 377.754 394.706 376.679C394.914 376.199 395.608 375.529 396.579 374.931L396.968 375.319C397.281 374.314 398.263 373.148 398.263 373.148C398.162 374.657 400.048 375.623 399.317 377.851Z" fill="#FFDC64"/>
<path d="M396.41 375.916C395.922 376.803 395.451 377.037 395.254 377.635C395.049 378.262 395.486 379.083 396.278 379.321C397.077 379.562 397.903 379.184 398.13 378.485C398.739 376.61 397.795 375.299 397.795 375.299C397.666 376.294 396.973 376.602 396.973 376.602C396.846 376.241 396.41 375.916 396.41 375.916Z" fill="white"/>
</g>
<path d="M380.95 387.489C377.267 382.385 361.601 403.706 354.228 415.004L353.895 416.144L353.791 417.351L353.947 418.579L354.396 419.609C354.976 420.302 355.811 420.156 358.551 420.156C363.491 420.156 383.027 408.754 386.227 392.556L389.539 389.932L386.227 386.086L380.95 387.489Z" fill="#D9D9D9" stroke="black"/>
<path d="M379.51 396.37L377.113 394.632C376.853 395.079 376.502 395.982 377.124 396.37C378.317 397.116 378.784 397.116 379.51 396.37Z" fill="#626262" stroke="black"/>
<ellipse cx="371.847" cy="413.809" rx="0.570724" ry="0.49683" fill="#A9A5A5"/>
<ellipse cx="371.847" cy="413.014" rx="0.570724" ry="0.496828" fill="#A9A5A5"/>
<ellipse cx="371.847" cy="412.219" rx="0.570724" ry="0.496832" fill="#A9A5A5"/>
<ellipse cx="371.64" cy="411.524" rx="0.570724" ry="0.49683" fill="#A9A5A5"/>
<ellipse cx="371.64" cy="410.729" rx="0.570724" ry="0.49683" fill="#A9A5A5"/>
<ellipse cx="371.64" cy="409.934" rx="0.570724" ry="0.496832" fill="#A9A5A5"/>
<ellipse cx="371.64" cy="409.238" rx="0.570724" ry="0.496828" fill="#A9A5A5"/>
<ellipse cx="371.64" cy="408.344" rx="0.570724" ry="0.49683" fill="#A9A5A5"/>
<ellipse cx="371.743" cy="407.649" rx="0.570724" ry="0.496832" fill="#A9A5A5"/>
<ellipse cx="371.847" cy="406.754" rx="0.570724" ry="0.49683" fill="#A9A5A5"/>
<ellipse cx="371.847" cy="406.059" rx="0.570724" ry="0.49683" fill="#A9A5A5"/>
<ellipse cx="371.847" cy="405.264" rx="0.570724" ry="0.496832" fill="#A9A5A5"/>
<ellipse cx="372.055" cy="404.568" rx="0.570724" ry="0.49683" fill="#A9A5A5"/>
<ellipse cx="372.262" cy="403.873" rx="0.570724" ry="0.49683" fill="#A9A5A5"/>
<ellipse cx="372.47" cy="403.177" rx="0.570724" ry="0.49683" fill="#A9A5A5"/>
<ellipse cx="372.885" cy="402.581" rx="0.570721" ry="0.496828" fill="#A9A5A5"/>
<ellipse cx="373.196" cy="401.985" rx="0.570724" ry="0.49683" fill="#A9A5A5"/>
<ellipse cx="373.611" cy="401.388" rx="0.570724" ry="0.49683" fill="#A9A5A5"/>
<ellipse cx="374.026" cy="400.792" rx="0.570724" ry="0.49683" fill="#A9A5A5"/>
<ellipse cx="374.441" cy="400.097" rx="0.570721" ry="0.496831" fill="#A9A5A5"/>
<ellipse cx="374.856" cy="399.501" rx="0.570724" ry="0.496831" fill="#A9A5A5"/>
<ellipse cx="375.271" cy="398.904" rx="0.570724" ry="0.49683" fill="#A9A5A5"/>
<ellipse cx="375.79" cy="398.308" rx="0.570721" ry="0.49683" fill="#A9A5A5"/>
<ellipse cx="376.309" cy="397.811" rx="0.570724" ry="0.49683" fill="#A9A5A5"/>
<ellipse cx="376.828" cy="397.215" rx="0.570724" ry="0.49683" fill="#A9A5A5"/>
<ellipse cx="377.347" cy="396.619" rx="0.570721" ry="0.496831" fill="#A9A5A5"/>
<path d="M344.045 447.736C343.509 448.512 342.258 449.986 341.554 449.643C317.93 438.112 303.322 430.349 299.997 426.548C299.575 425.712 299.218 424.771 299.515 423.722L293.667 419.998C294.527 418.029 296.383 414.164 296.926 414.457L298.146 415.115L300.686 412.721L299.601 412.136C301.452 410.777 305.309 408.281 305.933 409.165L311.9 412.383L312.714 412.822L307.923 416.225L308.62 416.544C320.873 425.375 344.09 443.427 338.936 444.981L344.045 447.736Z" fill="#E7E7E7"/>
<path d="M307.916 416.221C319.462 424.805 341.721 442.514 338.394 444.689L338.936 444.981M307.916 416.221L307.604 416.452M307.916 416.221L308.62 416.544C320.873 425.375 344.09 443.427 338.936 444.981M298.146 415.115C297.52 414.777 297.07 414.535 296.926 414.457C296.383 414.164 294.527 418.029 293.667 419.998L299.515 423.722C299.218 424.771 299.575 425.712 299.997 426.548C303.322 430.349 317.93 438.112 341.554 449.643C342.258 449.986 343.509 448.512 344.045 447.736L338.936 444.981M298.146 415.115L300.686 412.721L301.047 412.916M298.146 415.115C298.233 415.162 298.324 415.211 298.417 415.261M301.047 412.916L298.417 415.261M301.047 412.916L299.601 412.136C301.452 410.777 305.309 408.281 305.933 409.165L311.9 412.383M301.047 412.916L307.06 416.159M298.417 415.261C300.176 416.21 303.019 417.743 304.656 418.626L307.604 416.452M307.604 416.452L312.714 412.822L311.9 412.383M307.604 416.452L307.06 416.159M311.9 412.383L307.06 416.159" stroke="black"/>
<path d="M346.249 443.52L333.048 436.401C338.823 441.568 339.52 443.825 338.74 444.83L343.856 447.589L346.249 443.52Z" fill="black" stroke="black"/>
<path d="M350.629 445.996L346.198 443.607L345.078 445.511L349.052 447.654C348.759 447.497 349.981 446.483 350.629 445.996Z" fill="#313131" fill-opacity="0.94" stroke="black"/>
<path d="M348.429 448.117L344.722 446.117L343.86 447.582C344.93 448.18 346.986 449.268 347.16 449.362C347.33 449.453 347.778 449.02 348.429 448.117Z" fill="#3B3B3B" stroke="black"/>
<path d="M344.722 446.117L345.078 445.511L348.695 447.462L348.157 447.97L344.722 446.117Z" fill="black" stroke="black"/>
<mask id="path-229-inside-2_3_490" fill="white">
<ellipse rx="0.256813" ry="0.251109" transform="matrix(0.88017 0.474659 -0.506947 0.861977 311.064 413.54)"/>
</mask>
<ellipse rx="0.256813" ry="0.251109" transform="matrix(0.88017 0.474659 -0.506947 0.861977 311.064 413.54)" fill="#D9D9D9"/>
<path d="M310.849 413.425C310.925 413.297 311.081 413.267 311.19 413.326L310.683 414.188C311.041 414.381 311.514 414.266 311.73 413.899L310.849 413.425ZM311.19 413.326C311.299 413.384 311.353 413.528 311.278 413.656L310.397 413.181C310.182 413.548 310.324 413.994 310.683 414.188L311.19 413.326ZM311.278 413.656C311.203 413.783 311.046 413.813 310.937 413.755L311.444 412.893C311.086 412.699 310.613 412.814 310.397 413.181L311.278 413.656ZM310.937 413.755C310.829 413.696 310.774 413.552 310.849 413.425L311.73 413.899C311.945 413.533 311.803 413.086 311.444 412.893L310.937 413.755Z" fill="black" mask="url(#path-229-inside-2_3_490)"/>
<ellipse rx="0.051363" ry="0.0502219" transform="matrix(0.880171 0.474657 -0.50695 0.861976 311.064 413.54)" fill="#FF0000"/>
<line y1="-0.5" x2="43.1486" y2="-0.5" transform="matrix(0.881317 0.472525 -0.504759 0.86326 310.993 413.559)" stroke="#FF0000"/>
<ellipse rx="0.308176" ry="0.301331" transform="matrix(0.880169 0.47466 -0.506946 0.861978 310.122 414.23)" fill="#878787"/>
<path d="M303.818 416.646L302.498 417.474L304.668 418.644L305.782 417.762L303.818 416.646Z" fill="black" stroke="black"/>
<ellipse rx="1.33543" ry="1.25555" transform="matrix(0.880169 0.47466 -0.506947 0.861978 297.178 418.824)" fill="#D9D9D9"/>
<ellipse rx="1.33543" ry="1.25555" transform="matrix(0.880169 0.47466 -0.506946 0.861978 299.879 420.509)" fill="#D9D9D9"/>
<ellipse rx="1.33543" ry="1.25555" transform="matrix(0.880169 0.47466 -0.506947 0.861978 302.58 422.194)" fill="#D9D9D9"/>
<path d="M337.202 343.736C338.152 338.007 343.518 333.57 344.621 332.975C346.372 332.031 349.952 330.441 353.584 328.802C357.216 327.162 364.895 327.46 375.271 327.659C385.648 327.858 387.36 330.342 392.134 333.72C396.907 337.099 396.972 342.742 395.506 347.085C394.04 351.427 390.681 352.6 384.714 353.444C380.024 354.108 379.007 353.395 374.493 354.835C372.402 355.503 369.46 356.227 366.399 357.121C364.889 357.562 357.821 364.143 355.815 365.319C356.057 364.192 357.579 363.282 356.645 359.307C355.235 353.308 356.828 355.985 351.768 355.332C350.056 355.112 345.594 354.686 342.429 352.6C336.005 348.364 336.877 345.694 337.202 343.736Z" fill="#BFBFBF" stroke="black" stroke-width="1.5"/>
<defs>
<clipPath id="clip0_3_490">
<rect width="29" height="31.5001" fill="white" transform="translate(66.5 503.001)"/>
</clipPath>
<clipPath id="clip1_3_490">
<rect width="66.3871" height="55.1318" fill="white" transform="translate(114.5 253.869)"/>
</clipPath>
<clipPath id="clip2_3_490">
<rect width="76.7861" height="89.1422" fill="white" transform="matrix(-1 0 0 1 310.5 219.858)"/>
</clipPath>
<clipPath id="clip3_3_490">
<rect width="45.2564" height="38.3345" fill="white" transform="translate(185.296 192.5)"/>
</clipPath>
<clipPath id="clip4_3_490">
<rect width="8.94139" height="9.25232" fill="white" transform="translate(136.065 377.99)"/>
</clipPath>
<clipPath id="clip5_3_490">
<rect width="9.54665" height="9.63851" fill="white" transform="translate(392.549 369.889)"/>
</clipPath>
</defs>
</svg>
